<svg width="30" height="30" viewBox="0 0 30 30" fill="none" xmlns="http://www.w3.org/2000/svg">
<path opacity="0.3" fill-rule="evenodd" clip-rule="evenodd" d="M15 27.5C21.9036 27.5 27.5 21.9036 27.5 15C27.5 8.09644 21.9036 2.5 15 2.5C8.09644 2.5 2.5 8.09644 2.5 15C2.5 21.9036 8.09644 27.5 15 27.5Z" fill="#90CC1B"/>
<path d="M20.9612 9.77211C21.4322 9.26742 22.2232 9.24014 22.7279 9.71119C23.2326 10.1822 23.2599 10.9732 22.7888 11.4779L14.0388 20.8529C13.5818 21.3426 12.8201 21.385 12.3115 20.9491L7.93653 17.1991C7.41238 16.7498 7.35167 15.9607 7.80095 15.4365C8.25023 14.9124 9.03935 14.8517 9.56351 15.3009L13.0288 18.2711L20.9612 9.77211Z" fill="#90CC1B"/>
</svg>
